<?xml version="1.0" encoding="utf-8"?>
<!-- Svg Vector Icons : http://www.onlinewebfonts.com/icon -->
<!DOCTYPE svg PUBLIC "-//W3C//DTD SVG 1.1//EN" "http://www.w3.org/Graphics/SVG/1.1/DTD/svg11.dtd">
<svg version="1.1" xmlns="http://www.w3.org/2000/svg" xmlns:xlink="http://www.w3.org/1999/xlink" x="0px" y="0px" viewBox="0 0 256 256" enable-background="new 0 0 256 256" xml:space="preserve">
<metadata> Svg Vector Icons : http://www.onlinewebfonts.com/icon </metadata>
<g><g><g><path fill="#000000" d="M24.7,10.6c-6.8,1.9-12.3,7.5-14.1,14.3c-0.5,1.9-0.6,9.5-0.6,39.4v37.1l1.3,1.3c1.6,1.6,2.3,1.6,6.1,0.4c3.6-1.1,6.9-3.3,9.9-6.5l2.3-2.5l3,3.1c9.5,9.7,24.3,9.6,33.8-0.2l2.7-2.8l1.8,2.1c8.8,10.3,25,10.7,34.4,0.9l3-3.1l3.3,3.3c2.1,2,4.2,3.7,5.9,4.5c9.8,4.6,20.5,2.5,27.7-5.3l2.3-2.5l3,3.1c8.1,8.2,20.3,9.5,29.9,3c1.5-1,3.6-2.8,4.6-4l1.8-2.2l1.8,2.2c8.8,10.3,24.9,10.7,34.5,0.9l3-3.1l2.3,2.5c3,3.3,6.3,5.4,9.9,6.5c3.9,1.2,4.5,1.2,6.1-0.5l1.4-1.3l-0.1-38.2l-0.1-38.2l-1.5-3.1c-2-4.3-5.5-7.8-9.8-9.9l-3.5-1.7l-102.1-0.1C48.1,10,26.4,10.1,24.7,10.6z M231.4,19c2.2,1.2,4.4,3.4,5.6,5.7c0.8,1.5,0.9,3.5,1,35.6c0.1,32.9,0.1,34-0.7,33.5c-1.5-0.8-4.7-4.7-5.8-6.9c-1-2.1-1-2.7-1.2-30.6l-0.2-28.5l-1.3-1.1c-0.7-0.6-1.7-1.1-2.2-1.1c-1.4,0-3.1,0.9-3.6,2c-0.3,0.6-0.6,9.6-0.6,28.8l-0.1,27.9l-1.5,3.1c-3.4,6.8-10.6,10.3-17.6,8.4c-3.7-0.9-6.9-3-8.9-5.8c-3.1-4.2-3-3.2-3-33.4c0-25,0-27.4-0.8-28.8c-1.5-3-5.1-3-6.6,0c-0.8,1.5-0.8,3.9-0.8,29v27.4l-1.1,2.4c-1.6,3.4-2.9,5-5.5,6.8c-8.1,5.5-18.6,2.6-22.9-6.1l-1.5-3.1l-0.1-27.9c0-19.2-0.3-28.2-0.6-28.8c-0.6-1.1-2.3-2-3.6-2c-0.5,0-1.5,0.5-2.2,1.1l-1.3,1.1l-0.2,28.5c-0.2,28.1-0.2,28.5-1.2,30.6c-3.6,7.9-13,11.5-20.7,8c-3.4-1.5-6.6-4.7-8.1-8c-1-2.1-1-2.6-1.2-30.6l-0.2-28.5l-1.3-1.1c-0.7-0.6-1.7-1.1-2.2-1.1c-1.4,0-3.1,0.9-3.6,2c-0.3,0.6-0.6,9.6-0.6,28.8l-0.1,27.9L103,87c-1.7,3.6-4.1,6.2-7.5,7.7c-3.7,1.8-6.8,2.2-10.5,1.2c-3.7-0.9-6.9-3-8.9-5.7c-3.1-4.3-3-3.6-3-33.6c0-24.8,0-27.2-0.8-28.6c-1.4-2.8-4.8-3.1-6.4-0.6c-0.8,1.2-0.8,3.5-1.1,29.6l-0.2,28.3l-1.1,2.1c-1.7,3.2-2.8,4.5-5.3,6.2c-8.1,5.5-18.6,2.6-23-6.1l-1.5-3.1l-0.1-27.9c0-19.2-0.3-28.2-0.6-28.8c-0.6-1.1-2.3-2-3.6-2c-0.5,0-1.5,0.5-2.2,1.1l-1.3,1.1l-0.2,28.5c-0.2,28-0.2,28.5-1.3,30.6c-1,2.2-4.2,6.1-5.8,6.9c-0.8,0.5-0.8-0.6-0.7-33.6c0.1-32.2,0.2-34.1,1-35.6c1.7-3.1,4.5-5.5,7.7-6.5c0.6-0.2,46.6-0.3,102.1-0.3L229.6,18L231.4,19z"/><path fill="#000000" d="M19,111.6l-1.2,1.1v62.7v62.7h-2.6c-2.8,0-3.8,0.5-4.7,2.2c-0.9,1.6-0.6,2.9,0.8,4.3l1.3,1.3H128h115.3l1.3-1.3c1.4-1.4,1.7-2.7,0.8-4.3c-0.9-1.7-1.8-2.1-4.6-2.2h-2.7v-62.7v-62.7l-1.2-1.1c-0.7-0.8-1.6-1.2-2.8-1.2c-1.2,0-2,0.4-2.8,1.2l-1.2,1.1v62.7v62.7H128H25.7v-62.7v-62.7l-1.2-1.1C23,110,20.5,110,19,111.6z"/><path fill="#000000" d="M42.9,129l-1.3,1.1l-0.1,48.3c-0.1,38.1,0,48.5,0.5,49.4c1.2,2.5,4.3,2.9,6.3,0.9c0.9-0.9,0.9-1.8,0.9-47v-46.1h23.7h23.7v45.8c0,25.2,0.1,46.2,0.3,46.6c0.4,0.9,2.5,2.1,3.9,2.1c0.6,0,1.6-0.6,2.4-1.3l1.3-1.3v-48.5v-48.5l-1.3-1.3l-1.3-1.3H73H44.1L42.9,129z"/><path fill="#000000" d="M114.4,128.5c-2.1,1.2-2-0.1-2.1,42.6v40.6l1.1,1.3l1.1,1.3h48.9h48.8l1.1-1.1l1.1-1.1v-41v-41.1l-1.3-1.1l-1.3-1.1h-48.2C128.1,128,115.1,128.1,114.4,128.5z M206.7,171.1l-0.1,35.4l-43.2,0.1l-43.2,0.1v-35.5v-35.5h43.3h43.3L206.7,171.1z"/><path fill="#000000" d="M185,144.1c-1.3,0.7-2.3,3.4-1.8,4.7c0.2,0.6,2.6,3.2,5.3,5.8c4.2,4.2,5,4.7,6.4,4.7c1.6,0,3.1-1.2,3.7-2.9c0.6-1.5-0.9-3.7-5.3-8.1C188.8,143.8,186.9,142.9,185,144.1z"/><path fill="#000000" d="M169.7,151.9c-1.3,0.5-2,1.5-2.4,3.2c-0.3,1.4,0,1.8,8.8,10.7c8.5,8.5,9.3,9.2,10.8,9.2c2.5,0,3.9-1.8,3.7-4.8c0-1-15.7-17.1-17.6-18.1C171.7,151.3,171,151.3,169.7,151.9z"/><path fill="#000000" d="M83.7,175.3c-0.4,0.1-1.2,0.7-1.7,1.2c-1,0.9-1.1,1.3-1.1,6.5c0,5.2,0.1,5.7,1.1,6.5c1.4,1.3,2.4,1.6,4,1c2.2-0.7,2.8-2.4,2.8-7.5c0-4.9-0.6-6.6-2.5-7.5C85,174.9,84.8,174.9,83.7,175.3z"/></g></g></g>
</svg>