<?xml version="1.0" standalone="no"?>
<!DOCTYPE svg PUBLIC "-//W3C//DTD SVG 20010904//EN"
 "http://www.w3.org/TR/2001/REC-SVG-20010904/DTD/svg10.dtd">
<svg version="1.0" xmlns="http://www.w3.org/2000/svg"
 width="500.000000pt" height="500.000000pt" viewBox="0 0 500.000000 500.000000"
 preserveAspectRatio="xMidYMid meet">

<g transform="translate(0.000000,500.000000) scale(0.100000,-0.100000)"
fill="#000000" stroke="none">
<path d="M2160 3971 c-54 -17 -110 -52 -135 -85 -48 -63 -55 -108 -55 -362 l0
-234 -387 -2 -386 -3 -28 -70 c-16 -38 -34 -86 -40 -105 -7 -19 -35 -96 -64
-170 -62 -158 -70 -200 -54 -263 33 -135 226 -182 327 -81 l34 34 23 -24 c73
-79 194 -83 274 -11 l38 34 28 -29 c16 -16 50 -37 77 -46 47 -15 66 -15 132 2
24 6 26 4 26 -30 0 -39 -13 -50 -71 -61 -45 -8 -105 7 -153 40 -20 14 -41 25
-46 25 -5 0 -30 -15 -56 -32 -40 -29 -54 -33 -108 -33 -53 0 -71 5 -115 33
-29 17 -55 32 -57 32 -3 0 -20 -11 -37 -24 -47 -35 -102 -49 -156 -41 -25 3
-57 7 -71 8 l-25 2 -5 -278 -5 -278 -25 -12 c-23 -11 -25 -19 -28 -89 -2 -59
1 -79 13 -92 15 -14 67 -16 481 -16 l464 0 0 -233 c0 -255 7 -300 55 -363 14
-19 50 -47 78 -62 l52 -27 620 0 c617 0 620 0 660 22 22 12 54 36 72 55 61 63
63 75 63 418 l0 310 -30 0 -30 0 0 -295 c0 -243 -3 -302 -15 -332 -21 -50 -42
-72 -90 -94 -37 -17 -79 -19 -634 -19 -584 0 -595 0 -638 21 -29 14 -52 35
-68 63 l-25 43 0 1283 0 1283 25 43 c16 28 39 49 68 63 43 21 54 21 638 21
555 0 597 -2 634 -19 48 -22 69 -44 90 -94 13 -31 15 -103 15 -477 l0 -440 30
0 30 0 0 455 c0 502 1 497 -63 563 -18 19 -50 43 -72 55 -40 22 -46 22 -645
24 -333 1 -616 -2 -630 -6z m-190 -1035 c0 -351 6 -331 -96 -331 -55 0 -66 3
-93 29 -16 16 -36 47 -43 70 -17 53 -48 57 -60 7 -20 -75 -66 -111 -140 -111
-56 0 -104 30 -124 77 -27 62 -31 68 -44 68 -7 0 -16 -7 -20 -15 -33 -71 -49
-96 -72 -113 -55 -41 -173 -16 -203 44 -27 52 -19 111 38 257 30 75 69 179 88
230 l33 92 368 0 368 0 0 -304z m-440 -521 c61 0 85 5 125 26 l50 25 43 -24
c49 -28 145 -40 191 -24 l31 11 0 -335 0 -334 -455 0 -455 0 0 49 c0 47 2 50
28 53 l27 3 3 273 2 272 64 0 c67 0 116 13 155 40 23 16 26 16 70 -9 38 -22
59 -26 121 -26z"/>
<path d="M1530 2317 l-25 -13 0 -219 0 -220 189 -3 c130 -2 193 1 202 9 11 9
14 54 14 211 0 262 12 248 -202 248 -103 0 -161 -4 -178 -13z m318 -224 l-3
-178 -145 0 -145 0 -3 178 -2 177 150 0 150 0 -2 -177z"/>
<path d="M2593 3770 c-54 -22 -35 -112 24 -118 65 -6 97 67 47 107 -29 23 -38
24 -71 11z m47 -54 c0 -21 -21 -31 -30 -15 -5 7 -6 17 -4 21 9 14 34 9 34 -6z"/>
<path d="M2791 3731 c-12 -8 -13 -12 -1 -26 11 -13 34 -15 149 -13 128 3 136
4 136 23 0 19 -8 20 -135 23 -74 1 -141 -2 -149 -7z"/>
<path d="M2117 3503 c-4 -3 -7 -455 -7 -1004 0 -900 2 -997 16 -1003 9 -3 302
-6 653 -6 482 0 640 3 649 12 8 8 12 60 12 170 l0 158 -35 0 -35 0 0 -135 0
-135 -600 0 -600 0 0 945 0 945 600 0 600 0 0 -285 0 -285 35 0 35 0 -2 313
-3 312 -656 3 c-360 1 -659 -1 -662 -5z"/>
<path d="M2793 3013 c-32 -12 -11 -42 55 -77 37 -19 72 -39 79 -44 10 -7 58
-209 134 -572 11 -52 24 -112 30 -133 l10 -37 387 2 387 3 3 23 3 22 -369 0
-370 0 -10 47 c-6 26 -8 51 -6 55 3 4 175 8 383 8 l377 0 12 48 c48 192 101
447 94 454 -4 4 -228 9 -497 10 l-489 3 -10 50 -11 49 -90 47 c-50 26 -96 45
-102 42z m1130 -305 c-8 -35 -28 -124 -44 -198 -17 -74 -33 -138 -38 -143 -4
-4 -171 -6 -371 -5 l-364 3 -8 35 c-4 19 -21 98 -38 175 -17 77 -33 152 -37
168 l-5 27 460 0 460 0 -15 -62z"/>
<path d="M3230 2655 c-10 -12 -10 -18 0 -30 10 -13 53 -15 270 -15 217 0 260
2 270 15 10 12 10 18 0 30 -10 13 -53 15 -270 15 -217 0 -260 -2 -270 -15z"/>
<path d="M3223 2555 c-3 -9 -1 -21 4 -26 5 -5 82 -8 184 -7 166 3 174 4 174
23 0 19 -8 20 -178 23 -155 2 -178 0 -184 -13z"/>
<path d="M3224 2455 c-11 -29 7 -35 111 -35 104 0 119 5 107 38 -7 19 -211 17
-218 -3z"/>
<path d="M3246 2085 c-42 -22 -55 -44 -56 -93 0 -104 139 -142 186 -51 29 58
11 114 -46 144 -36 19 -48 19 -84 0z m78 -64 c22 -25 13 -58 -20 -73 -19 -9
-28 -8 -44 7 -22 20 -25 37 -10 66 14 24 52 25 74 0z"/>
<path d="M3613 2080 c-37 -22 -53 -48 -53 -84 0 -66 58 -114 123 -102 47 9 77
47 77 98 0 48 -22 83 -62 97 -42 15 -48 14 -85 -9z m87 -59 c16 -31 12 -49
-14 -66 -29 -19 -61 -8 -71 26 -15 45 62 82 85 40z"/>
<path d="M2715 1425 c-43 -22 -75 -73 -75 -121 0 -142 189 -186 251 -58 35 73
6 149 -67 180 -42 18 -71 17 -109 -1z m109 -77 c44 -63 -17 -138 -83 -103 -46
23 -53 57 -20 99 27 34 81 36 103 4z"/>
</g>
</svg>
